<?xml version="1.0" encoding="UTF-8"?> <svg xmlns="http://www.w3.org/2000/svg" width="17" height="17" viewBox="0 0 17 17" fill="none"> <path fill-rule="evenodd" clip-rule="evenodd" d="M7.70449 0.0199497C6.05031 0.179973 4.41068 0.852506 3.12499 1.89835C2.74681 2.20599 2.14804 2.80945 1.84643 3.18702C1.08379 4.14164 0.458828 5.43291 0.199635 6.58944C0.036866 7.3159 0 7.66905 0 8.50241C0 9.33576 0.036866 9.68891 0.199635 10.4154C0.464485 11.5971 1.10575 12.9069 1.89374 13.8753C2.20141 14.2535 2.80494 14.8522 3.18255 15.1538C4.13727 15.9163 5.42868 16.5412 6.58534 16.8004C7.31188 16.9631 7.66506 17 8.49851 17C9.33195 17 9.68514 16.9631 10.4117 16.8004C11.2813 16.6055 12.4184 16.1197 13.1656 15.6237C14.4616 14.7634 15.457 13.6315 16.1366 12.2452C16.5528 11.396 16.7893 10.6354 16.9382 9.66682C17.0206 9.13086 17.0206 7.87396 16.9382 7.33799C16.7893 6.36937 16.5528 5.60884 16.1366 4.75965C15.6923 3.85347 15.1972 3.16407 14.4823 2.45654C13.7805 1.76188 13.1375 1.3054 12.2417 0.865647C11.4025 0.453711 10.6256 0.21078 9.69632 0.0696868C9.27842 0.00624285 8.13993 -0.0222021 7.70449 0.0199497ZM13.0569 5.05917L13.8051 5.80782L10.4947 9.11802L7.18434 12.4282L5.22136 10.4654L3.25838 8.50264L4.00665 7.75392L4.75491 7.0052L5.96131 8.21114L7.16774 9.4171L9.72131 6.86381C11.1258 5.45949 12.2825 4.31052 12.2918 4.31052C12.3012 4.31052 12.6455 4.6474 13.0569 5.05917Z" fill="white"></path> </svg> 