<svg width="60" height="60" viewBox="0 0 60 60" fill="none" xmlns="http://www.w3.org/2000/svg">
<path d="M9 52.023V29.871V8L23.813 8.016L38.624 8.032L39.284 8.15C41.191 8.49 42.479 8.93499 43.871 9.73399C44.575 10.15 45.2415 10.6265 45.863 11.158C46.36 11.596 47.331 12.679 47.707 13.212C49.239 15.39 50.114 17.882 50.417 20.927C50.496 21.733 50.5 34 50.5 34V52.023H36H21.372H9Z" fill="#282828"/>
<path d="M38 24.982C38 24.982 37.647 20.034 31.647 20.034L29.578 20.015L22.064 20V22.237L22 40.982H38V24.982Z" fill="#E8EAED"/>
</svg>
