<svg width="140" height="66" viewBox="0 0 140 66" fill="none" xmlns="http://www.w3.org/2000/svg">
<path fill-rule="evenodd" clip-rule="evenodd" d="M0.646988 22.4V44.552H13.019H42.147C42.147 44.552 41.825 28.608 42.147 25.339C42.081 26.773 42.143 14.262 42.064 13.456C41.761 10.411 40.886 7.91899 39.354 5.74099C38.978 5.20799 38.007 4.12499 37.51 3.68699C36.8885 3.1555 36.222 2.67904 35.518 2.26299C34.126 1.46399 32.838 1.01899 30.931 0.678995L30.271 0.560995L15.46 0.544995L0.646988 0.528995V22.4ZM44.235 22.401V44.272H56.653V0.529995H44.235V22.401ZM60.809 22.401V44.272H73.277V29.987L81.754 29.967C90.944 29.947 90.467 29.962 91.929 29.651C94.569 29.089 96.85 27.816 98.569 25.948C100.532 23.812 101.707 21.13 102.202 17.656C102.332 16.741 102.332 13.764 102.201 12.829C101.934 10.919 101.507 9.40399 100.821 7.93799C98.851 3.72399 95.301 1.19099 90.561 0.613995C89.962 0.540995 88.041 0.529995 75.342 0.529995H60.809V22.401ZM104.445 0.597995C104.442 0.682995 104.442 44.109 104.445 44.204C104.447 44.258 107.964 44.272 121.857 44.272H139.267V31.782H116.865V0.529995H110.656C105.724 0.529995 104.447 0.543995 104.445 0.597995ZM22.647 13.052C28.647 13.052 29 18 29 18V34H13L13.064 15.255V13.018L20.578 13.033L22.647 13.052ZM88.239 13.081C88.835 13.215 89.421 13.689 89.671 14.238C90.171 15.338 89.777 16.652 88.785 17.193C88.224 17.499 88.463 17.491 80.563 17.492H73.277V13.02H80.624C85.806 13.02 88.049 13.038 88.239 13.08V13.081ZM37.317 54.561C36.163 54.823 35.286 55.701 34.927 56.956C34.842 57.25 34.833 57.509 34.833 59.761C34.833 62.506 34.829 62.469 35.18 63.249C35.411 63.765 35.983 64.374 36.48 64.635C37.0048 64.9174 37.5931 65.0609 38.189 65.052C39.293 65.052 40.083 64.732 40.739 64.021C41.172 63.552 41.389 63.134 41.549 62.458C41.642 62.069 41.65 61.85 41.65 59.761C41.65 57.673 41.642 57.454 41.55 57.065C41.391 56.399 41.17 55.972 40.738 55.501C40.091 54.794 39.288 54.467 38.219 54.475C37.9164 54.4777 37.6146 54.5064 37.317 54.561ZM93.58 54.585C92.78 54.796 92.107 55.281 91.714 55.928C91.157 56.846 91.104 57.214 91.131 59.999C91.154 62.345 91.169 62.484 91.48 63.169C91.6539 63.5631 91.9072 63.917 92.2242 64.2086C92.5411 64.5003 92.9149 64.7234 93.322 64.864C93.752 65.015 93.826 65.024 94.589 65.024C95.345 65.022 95.429 65.011 95.805 64.869C96.651 64.551 97.255 64.003 97.605 63.234C97.825 62.748 97.96 62.255 97.96 61.932V61.725H96.545L96.49 61.957C96.394 62.363 96.27 62.609 96.023 62.882C95.076 63.929 93.222 63.598 92.734 62.294C92.614 61.971 92.613 61.964 92.613 59.762C92.613 57.576 92.614 57.549 92.731 57.238C93.047 56.395 93.99 55.881 94.906 56.05C95.754 56.207 96.291 56.721 96.49 57.566L96.545 57.798H97.96V57.59C97.96 57.337 97.808 56.717 97.662 56.373C97.3674 55.709 96.8562 55.1647 96.212 54.829C95.512 54.472 94.399 54.369 93.58 54.585ZM112.177 54.551C111.187 54.783 110.397 55.416 109.995 56.298C109.649 57.058 109.643 57.122 109.643 59.761C109.643 61.856 109.653 62.176 109.732 62.489C110.032 63.683 110.775 64.516 111.873 64.889C112.413 65.073 113.399 65.102 113.988 64.95C114.556 64.8145 115.075 64.5208 115.483 64.103C116.024 63.5489 116.361 62.827 116.438 62.056L116.473 61.725H115.011L114.953 62.022C114.867 62.463 114.593 62.886 114.229 63.139C113.852 63.402 113.51 63.499 112.988 63.491C112.307 63.481 111.744 63.175 111.403 62.63C111.092 62.132 111.081 62.025 111.098 59.643L111.112 57.495L111.278 57.135C111.552 56.535 112.014 56.185 112.701 56.053C113.343 55.93 114.093 56.168 114.506 56.626C114.748 56.894 114.939 57.284 114.976 57.584L115.003 57.798H116.46L116.459 57.648C116.457 57.333 116.302 56.718 116.128 56.338C115.572 55.124 114.48 54.466 113.038 54.476C112.749 54.4762 112.461 54.5013 112.177 54.551ZM0.646988 59.776V64.916L1.35699 64.924L2.06699 64.931V61.961L2.80699 61.021C3.21499 60.504 3.56699 60.101 3.58799 60.126C3.62599 60.169 5.31299 62.914 6.12999 64.261L6.52599 64.916L7.38499 64.918C7.96699 64.92 8.23199 64.902 8.21099 64.863C7.44671 63.5971 6.67603 62.3351 5.89899 61.077C5.15399 59.867 4.55199 58.857 4.55999 58.833C4.56799 58.81 5.20199 57.998 5.96899 57.028C6.73499 56.058 7.47299 55.123 7.60799 54.95L7.85299 54.635L6.94899 54.638L6.04499 54.641L4.47399 56.636C2.15899 59.574 2.16399 59.569 2.11299 59.589C2.08499 59.599 2.06599 58.615 2.06599 57.121V54.635H0.646988V59.776ZM12.228 54.702L11.55 56.789L9.92999 61.779C9.39899 63.414 8.95699 64.788 8.94999 64.832C8.93599 64.899 9.04799 64.913 9.63399 64.92C10.124 64.925 10.352 64.908 10.394 64.862C10.427 64.825 10.625 64.265 10.834 63.615L11.214 62.435H13.017L14.819 62.434L15.193 63.607C15.4 64.253 15.586 64.811 15.607 64.848C15.635 64.897 15.849 64.916 16.37 64.916C16.987 64.916 17.092 64.903 17.078 64.834C17.063 64.754 16.601 63.325 15.158 58.889C14.782 57.734 14.32 56.31 14.131 55.725L13.787 54.662L13.019 54.647C12.432 54.635 12.245 54.648 12.228 54.702ZM18.234 59.776V64.918L18.957 64.917L19.679 64.916L19.692 62.692L19.705 60.468L20.449 60.483L21.192 60.498L22.4 62.707L23.607 64.916L24.394 64.923C24.826 64.926 25.188 64.914 25.199 64.895C25.209 64.876 24.706 63.928 24.08 62.788C23.6734 62.0498 23.27 61.3098 22.87 60.568C22.795 60.421 22.796 60.42 23.011 60.359C23.981 60.084 24.694 59.28 24.869 58.264C25.115 56.835 24.63 55.568 23.624 55.004C22.987 54.649 22.868 54.634 20.424 54.634H18.234V59.776ZM29.36 54.702L28.114 58.534C27.5544 60.2508 26.9984 61.9688 26.446 63.688C26.246 64.303 26.079 64.83 26.074 64.858C26.059 64.94 27.449 64.945 27.524 64.863C27.558 64.826 27.757 64.264 27.966 63.615L28.346 62.435H30.146L31.948 62.434L32.346 63.661C32.689 64.721 32.758 64.89 32.851 64.897C33.154 64.923 33.989 64.928 34.109 64.907L34.246 64.881L34.15 64.598C34.097 64.443 33.56 62.794 32.956 60.934C32.3463 59.0516 31.7343 57.1699 31.12 55.289L30.919 54.662L30.151 54.647C29.563 54.635 29.377 54.648 29.361 54.702H29.36ZM43.133 59.775L43.145 64.915H44.565L44.59 63.402L44.615 61.888L45.321 60.988C45.709 60.494 46.035 60.088 46.044 60.088C46.053 60.088 46.598 60.966 47.255 62.038C47.913 63.111 48.58 64.197 48.738 64.452L49.025 64.916L49.874 64.924C50.341 64.929 50.723 64.924 50.723 64.912C50.723 64.893 50.337 64.262 47.825 60.162L47.017 58.843L48.634 56.801C49.524 55.678 50.268 54.731 50.288 54.697C50.314 54.651 50.085 54.635 49.435 54.635H48.547L46.581 57.12L44.615 59.606L44.602 57.12L44.589 54.635H43.119L43.133 59.775ZM51.787 59.758C51.787 64.591 51.792 64.882 51.876 64.906C51.925 64.919 53.196 64.927 54.701 64.923L57.438 64.916L57.452 64.138L57.466 63.361H53.257V60.526L55.347 60.512L57.438 60.498L57.452 59.721L57.466 58.943H53.257V56.162H57.464V54.635H51.787V59.758ZM66.092 59.775L66.105 64.915L68.082 64.912C70.326 64.908 70.522 64.882 71.252 64.502C72.032 64.096 72.61 63.314 72.858 62.325C72.937 62.014 72.948 61.699 72.948 59.761C72.948 57.617 72.944 57.54 72.831 57.118C72.661 56.485 72.441 56.078 72.037 55.641C71.6414 55.2055 71.1286 54.8933 70.56 54.742C70.203 54.644 69.993 54.635 68.124 54.635H66.079L66.092 59.775ZM76.799 54.703C76.742 54.873 75.818 57.713 75.508 58.671L74.35 62.243C73.902 63.623 73.529 64.788 73.52 64.833C73.507 64.9 73.613 64.915 74.164 64.923C74.526 64.929 74.86 64.923 74.906 64.91C74.962 64.893 75.116 64.494 75.387 63.66L75.786 62.435H79.384L79.764 63.61C79.972 64.257 80.158 64.813 80.177 64.847C80.216 64.914 81.624 64.963 81.657 64.898C81.667 64.878 81.407 64.038 81.077 63.034C80.747 62.029 80.387 60.924 80.277 60.58C79.6461 58.6284 79.0105 56.6784 78.37 54.73C78.338 54.645 78.251 54.635 77.578 54.635C77.018 54.635 76.817 54.652 76.799 54.703ZM82.818 59.773L82.831 64.916H84.25L84.264 61.234L84.277 57.553L84.394 57.771L86.324 61.398C87.322 63.273 88.16 64.831 88.186 64.861C88.213 64.891 88.541 64.918 88.941 64.921L89.648 64.925V54.635H88.228V58.289C88.228 60.299 88.211 61.942 88.191 61.941C88.17 61.939 87.872 61.406 87.529 60.755C87.186 60.103 86.317 58.466 85.598 57.116L84.29 54.662L83.547 54.647L82.805 54.632L82.818 59.773ZM99.29 59.775L99.303 64.915L102.129 64.919L104.954 64.922V63.362H100.748V60.526L102.838 60.512L104.929 60.498L104.943 59.721L104.957 58.943H100.748V56.162H104.954V54.635H99.277L99.29 59.775ZM117.79 59.775L117.803 64.915H123.429L123.443 64.138L123.457 63.361H119.247V54.635H117.777L117.79 59.775ZM124.326 58.466L124.341 62.298L124.476 62.707C124.677 63.315 124.853 63.619 125.25 64.045C125.893 64.735 126.674 65.051 127.737 65.051C128.818 65.051 129.582 64.737 130.246 64.018C130.653 63.578 130.825 63.276 131.013 62.676L131.132 62.298L131.147 58.466L131.162 54.635H129.745L129.728 58.275L129.712 61.915L129.595 62.229C129.504 62.4464 129.382 62.6496 129.233 62.832C128.311 63.917 126.482 63.642 125.92 62.334C125.812 62.082 125.811 62.041 125.797 58.357L125.783 54.635H124.312L124.326 58.466ZM132.792 59.776L132.805 64.916L135.061 64.91C136.998 64.905 137.362 64.892 137.645 64.813C138.81 64.488 139.475 63.684 139.62 62.423C139.707 61.675 139.584 61.002 139.263 60.463C139.111 60.208 138.766 59.831 138.585 59.722C138.499 59.67 138.513 59.64 138.748 59.388C139.348 58.742 139.565 57.721 139.321 56.693C139.191 56.146 139.073 55.909 138.731 55.512C138.553 55.2962 138.333 55.1187 138.084 54.99C137.422 54.643 137.352 54.635 134.948 54.635H132.779L132.792 59.776ZM38.602 56.056C39.232 56.166 39.796 56.608 40.046 57.189C40.152 57.437 40.155 57.501 40.155 59.761C40.155 62.028 40.153 62.085 40.045 62.337C39.9515 62.5277 39.8343 62.7058 39.696 62.867C38.951 63.726 37.486 63.714 36.74 62.844C36.47 62.528 36.345 62.231 36.28 61.746C36.213 61.251 36.213 58.196 36.28 57.743C36.429 56.731 37.156 56.065 38.178 56.005C38.234 56.002 38.425 56.025 38.602 56.055V56.056ZM22.732 56.319C23.067 56.481 23.276 56.734 23.377 57.099C23.581 57.841 23.326 58.512 22.723 58.814C22.473 58.939 22.429 58.942 21.085 58.943H19.705V56.155L21.085 56.172C22.414 56.188 22.477 56.194 22.733 56.319H22.732ZM69.992 56.223C70.2819 56.2846 70.553 56.4145 70.7827 56.6018C71.0124 56.7891 71.1942 57.0284 71.313 57.3L71.478 57.662V61.862L71.313 62.222C71.1553 62.591 70.88 62.8976 70.53 63.094C70.112 63.324 69.865 63.36 68.677 63.361H67.55V56.161H68.637C69.249 56.161 69.841 56.189 69.992 56.223ZM137.249 56.334C137.767 56.596 138.016 57.167 137.902 57.836C137.828 58.271 137.635 58.549 137.267 58.752L136.969 58.916L135.609 58.933L134.25 58.95V56.155L135.605 56.172C136.952 56.189 136.963 56.19 137.249 56.334ZM13.668 58.876L14.319 60.893C14.337 60.947 14.055 60.961 13.014 60.961C11.973 60.961 11.69 60.947 11.708 60.893L12.36 58.876C12.706 57.804 13 56.927 13.014 56.926C13.028 56.926 13.322 57.804 13.668 58.876ZM31.434 60.839L31.47 60.961H30.143C29.072 60.961 28.821 60.948 28.842 60.891L29.481 58.921C29.818 57.878 30.109 56.998 30.127 56.967C30.152 56.923 31.21 60.058 31.434 60.839ZM77.805 57.539C77.913 57.877 78.204 58.776 78.452 59.538C78.7 60.3 78.902 60.932 78.902 60.942C78.902 60.952 78.307 60.962 77.58 60.962C76.543 60.962 76.261 60.947 76.279 60.893L76.93 58.876C77.276 57.804 77.571 56.926 77.585 56.926C77.599 56.926 77.698 57.202 77.805 57.539ZM61.323 58.566C60.242 58.921 60.11 60.478 61.113 61.034C61.359 61.17 61.433 61.185 61.735 61.164C62.172 61.133 62.49 60.934 62.705 60.56C62.877 60.26 62.932 59.818 62.842 59.458C62.772 59.179 62.481 58.809 62.216 58.664C61.976 58.533 61.563 58.487 61.323 58.566ZM137.526 60.673C137.947 60.915 138.152 61.325 138.152 61.923C138.152 62.556 137.951 62.945 137.499 63.183L137.215 63.333L135.732 63.351L134.25 63.367V60.519L135.783 60.536C137.254 60.552 137.324 60.557 137.526 60.673Z" fill="white"/>
</svg>
