<?xml version="1.0" encoding="UTF-8"?> <svg xmlns="http://www.w3.org/2000/svg" width="12" height="15" viewBox="0 0 12 15" fill="none"> <path fill-rule="evenodd" clip-rule="evenodd" d="M5.35306 0.598521C2.15884 1.22079 0.236478 4.24456 1.08165 7.31715C1.56177 9.06246 3.31003 11.5047 5.52961 13.5306L6.3929 14.3186L6.87972 13.9106C8.0542 12.9261 9.77579 10.9979 10.5412 9.80976C11.7468 7.93811 12.1568 6.35724 11.8365 4.81513C11.2351 1.91967 8.31611 0.0212315 5.35306 0.598521ZM7.35459 3.74674C8.23804 4.13493 8.76744 4.93303 8.77227 5.88409C8.77887 7.1637 7.76198 8.13205 6.41153 8.13205C5.04644 8.13205 4.05054 7.18262 4.05266 5.88335C4.05418 4.93475 4.58384 4.13542 5.46847 3.74674C5.94352 3.53806 6.87955 3.53806 7.35459 3.74674Z" fill="black"></path> </svg> 