<?xml version="1.0" encoding="UTF-8"?> <svg xmlns="http://www.w3.org/2000/svg" width="121" height="121" viewBox="0 0 121 121" fill="none"> <g filter="url(#filter0_d_21_175)"> <rect x="25" y="25" width="71" height="71" rx="10" fill="url(#paint0_linear_21_175)"></rect> </g> <path fill-rule="evenodd" clip-rule="evenodd" d="M47.44 45.096C46.8354 45.2567 46.4317 45.4941 45.9699 45.9609C45.4918 46.4441 45.2445 46.8849 45.0946 47.5213C44.8746 48.455 44.987 48.8911 45.9874 50.9863L46.7873 52.6612L46.58 53.0054C46.267 53.525 46.1683 53.9352 46.2044 54.5662C46.2266 54.9538 46.2762 55.1877 46.3843 55.4142C46.5647 55.7922 46.7507 55.8807 47.1439 55.7757C47.289 55.7369 47.4168 55.7144 47.428 55.7256C47.4392 55.7369 48.2345 59.7963 49.1953 64.7466C50.347 70.6809 50.9878 73.848 51.0763 74.0429C51.5961 75.1882 53.7031 76.1842 56.6602 76.6824C59.1731 77.1059 62.8361 77.1059 65.349 76.6824C68.3058 76.1843 70.4108 75.1893 70.9335 74.0429C71.0232 73.8462 71.6452 70.7722 72.7911 64.8623C73.7386 59.9756 74.5298 55.9124 74.5492 55.8329C74.575 55.7277 74.6123 55.7007 74.6863 55.7335C74.8785 55.8188 75.2431 55.8328 75.379 55.7599C75.5969 55.6433 75.7666 55.1654 75.8029 54.5662C75.8412 53.9352 75.7435 53.5273 75.4292 53.0054L75.222 52.6612L76.0286 50.9721C76.9812 48.9771 77.0802 48.6396 76.9583 47.8025C76.8496 47.0561 76.5556 46.4707 76.0226 45.9396C74.7549 44.6765 72.8172 44.6882 71.5358 45.9669C71.1372 46.3646 71.1653 46.3141 70.045 48.6423L69.4644 49.8489L68.9854 49.918C68.711 49.9576 68.3525 50.0623 68.1466 50.163C67.7296 50.3669 67.2021 50.8677 67.0124 51.24C66.7844 51.6873 66.8536 51.9251 67.2733 52.1369C67.4183 52.2101 67.5459 52.2779 67.5571 52.2876C67.5901 52.3167 61.0615 60.2635 61.0046 60.2635C60.9477 60.2635 54.4191 52.3167 54.4521 52.2876C54.4633 52.2779 54.5909 52.2101 54.7359 52.1369C55.1556 51.9251 55.2248 51.6873 54.9969 51.24C54.8071 50.8677 54.2796 50.3669 53.8626 50.163C53.6567 50.0623 53.2982 49.9576 53.0239 49.918L52.5448 49.8489L51.9642 48.6423C50.8439 46.3141 50.872 46.3646 50.4734 45.9669C49.6652 45.1604 48.4792 44.8199 47.44 45.096ZM48.7214 46.145C49.5951 46.378 49.7852 46.6054 50.7354 48.5547C51.161 49.4276 51.4979 50.1533 51.4841 50.1672C51.4347 50.2165 47.6735 52.0086 47.6562 51.9909C47.5495 51.8823 46.1692 48.8485 46.1182 48.6105C45.8937 47.5627 46.5918 46.4403 47.6445 46.1565C48.0623 46.0439 48.3315 46.041 48.7214 46.145ZM74.3373 46.1532C75.443 46.4415 76.1353 47.5661 75.8822 48.6629C75.838 48.8545 74.4431 51.8868 74.3513 51.9909C74.3364 52.0078 70.571 50.2131 70.5253 50.1673C70.4785 50.1204 72.0021 47.0762 72.1874 46.8466C72.4462 46.5256 72.7615 46.3156 73.1906 46.1781C73.6221 46.0399 73.8811 46.0342 74.3373 46.1532ZM53.1681 51.0395C53.3353 51.0939 53.5493 51.2004 53.6436 51.2761L53.815 51.4137L50.5493 52.9815L47.2837 54.5492L47.2633 54.36C47.2282 54.0359 47.3809 53.6389 47.6525 53.3479C47.8705 53.1143 48.203 52.9317 49.8779 52.1255C52.5398 50.8443 52.5537 50.8397 53.1681 51.0395ZM71.9242 52.0359C73.1211 52.6093 74.1787 53.1526 74.2744 53.2433C74.539 53.494 74.7683 54.0094 74.7451 54.3011L74.7255 54.5471L71.4571 52.9794L68.1886 51.4117L68.3573 51.2857C68.45 51.2163 68.655 51.1098 68.8128 51.049C69.364 50.8363 69.531 50.8893 71.9242 52.0359ZM56.9038 57.0056C59.7905 60.5302 60.2969 61.1777 60.2344 61.2637C60.0039 61.581 51.671 71.7149 51.6543 71.6982C51.5937 71.6375 48.4327 55.1665 48.4788 55.1511C48.5091 55.1409 49.6169 54.6114 50.9405 53.9743C52.2642 53.3373 53.3814 52.8235 53.4233 52.8326C53.4651 52.8416 55.0314 54.7194 56.9038 57.0056ZM71.07 53.9751C72.3929 54.6117 73.5006 55.141 73.5314 55.1514C73.5781 55.167 70.5265 71.1222 70.3893 71.5803C70.3502 71.7108 69.8326 71.1032 66.0455 66.4809C63.6808 63.5947 61.741 61.2115 61.7348 61.1848C61.7182 61.1136 68.5257 52.8179 68.6009 52.8178C68.6359 52.8177 69.747 53.3385 71.07 53.9751ZM64.5009 66.2803C66.3945 68.5916 67.9358 70.4906 67.9261 70.5003C67.9163 70.5101 67.5998 70.435 67.2225 70.3334C66.3949 70.1106 65.2495 69.8833 64.1926 69.7321C63.5506 69.6402 62.9821 69.6203 61.0046 69.6203C59.0271 69.6203 58.4586 69.6402 57.8166 69.7321C56.7598 69.8833 55.6143 70.1106 54.7867 70.3334C54.4094 70.435 54.0929 70.5101 54.0831 70.5003C54.0524 70.4695 60.9485 62.078 61.0046 62.078C61.034 62.078 62.6074 63.969 64.5009 66.2803ZM64.1902 70.8026C67.5091 71.226 70.0685 72.3068 70.0685 73.285C70.0685 73.5376 69.7743 73.9353 69.3852 74.2085C66.3883 76.3127 57.5783 76.5752 53.4569 74.6832C52.5561 74.2696 51.9407 73.7021 51.9407 73.285C51.9407 72.7093 52.9503 72.0111 54.5301 71.4943C55.6337 71.1333 57.2263 70.8468 59.0043 70.6893C59.7172 70.6261 63.4456 70.7076 64.1902 70.8026Z" fill="url(#paint1_linear_21_175)"></path> <defs> <filter id="filter0_d_21_175" x="0" y="0" width="121" height="121" filterUnits="userSpaceOnUse" color-interpolation-filters="sRGB"> <feFlood flood-opacity="0" result="BackgroundImageFix"></feFlood> <feColorMatrix in="SourceAlpha" type="matrix" values="0 0 0 0 0 0 0 0 0 0 0 0 0 0 0 0 0 0 127 0" result="hardAlpha"></feColorMatrix> <feOffset></feOffset> <feGaussianBlur stdDeviation="12.5"></feGaussianBlur> <feComposite in2="hardAlpha" operator="out"></feComposite> <feColorMatrix type="matrix" values="0 0 0 0 0 0 0 0 0 0 0 0 0 0 0 0 0 0 0.15 0"></feColorMatrix> <feBlend mode="normal" in2="BackgroundImageFix" result="effect1_dropShadow_21_175"></feBlend> <feBlend mode="normal" in="SourceGraphic" in2="effect1_dropShadow_21_175" result="shape"></feBlend> </filter> <linearGradient id="paint0_linear_21_175" x1="29" y1="25" x2="89" y2="96" gradientUnits="userSpaceOnUse"> <stop stop-color="#16171A"></stop> <stop offset="1" stop-color="#2A2C2F"></stop> </linearGradient> <linearGradient id="paint1_linear_21_175" x1="45" y1="72" x2="78.6987" y2="62.5709" gradientUnits="userSpaceOnUse"> <stop offset="0.216958" stop-color="#1A59B8"></stop> <stop offset="0.953732" stop-color="#861DFF"></stop> </linearGradient> </defs> </svg> 