<?xml version="1.0" encoding="UTF-8"?> <svg xmlns="http://www.w3.org/2000/svg" width="121" height="121" viewBox="0 0 121 121" fill="none"> <g filter="url(#filter0_d_21_162)"> <rect x="25" y="25" width="71" height="71" rx="10" fill="url(#paint0_linear_21_162)"></rect> </g> <path fill-rule="evenodd" clip-rule="evenodd" d="M58.6112 45.0204C57.8881 45.0675 56.4966 45.2371 55.7939 45.3638C53.2253 45.8269 51.4391 46.6203 50.2508 47.8258C49.5424 48.5445 49.2764 49.0815 49.0357 50.2789C48.8479 51.2131 48.6768 51.6577 48.4077 51.9112C48.3231 51.9909 47.9929 52.155 47.674 52.276C46.8361 52.5939 46.3053 52.8934 45.9316 53.259C45.5126 53.6689 45.295 54.0508 45.1343 54.6584C44.6569 56.4629 45.5145 62.2978 46.7222 65.4624C47.4988 67.4974 48.5251 68.9182 49.6496 69.515C50.1223 69.7659 50.6785 69.9333 51.039 69.9333C51.1681 69.9333 51.274 69.9544 51.2744 69.9802C51.2749 70.0061 50.9642 71.3652 50.584 73.0005C49.8343 76.2263 49.8307 76.2562 50.1432 76.6315C50.395 76.9336 50.6226 77 51.407 77C52.1818 77 52.529 76.8896 52.753 76.5719C52.9315 76.3186 54.6793 71.7682 54.6793 71.5565C54.6793 71.0918 54.0592 70.9501 53.8462 71.3661C53.7992 71.4579 53.3803 72.5163 52.9154 73.7181C52.4504 74.92 52.0406 75.9391 52.0048 75.9826C51.9338 76.0691 50.8388 76.0996 50.8421 76.015C50.8431 75.9892 51.1594 74.6173 51.545 72.9664L52.246 69.9646L58.9322 69.9487L65.6185 69.9328L66.8443 73.1068C67.5185 74.8525 68.1343 76.3829 68.2128 76.5078C68.4493 76.8841 68.7744 77 69.5926 77C70.377 77 70.6045 76.9336 70.8563 76.6315C71.1689 76.2562 71.1653 76.2263 70.4155 73.0005C70.0354 71.3652 69.7247 70.0101 69.7251 69.9893C69.7255 69.9685 69.9018 69.9348 70.1169 69.9145C72.6299 69.6776 74.5645 66.3385 75.5411 60.5528C75.9776 57.9671 76.1173 55.7019 75.897 54.7838C75.6001 53.5461 74.8989 52.8639 73.311 52.2676C72.9994 52.1506 72.6755 51.99 72.5912 51.9106C72.3232 51.6582 72.1516 51.213 71.9655 50.2871C71.8338 49.6317 71.7238 49.2646 71.5622 48.9404C70.5554 46.9212 67.9105 45.6479 63.6577 45.135C62.8535 45.038 59.5077 44.962 58.6112 45.0204ZM63.5648 46.0751C66.7378 46.4488 68.8571 47.2229 70.0665 48.4498C70.6345 49.026 70.8648 49.4901 71.0298 50.3905C71.3665 52.2285 71.737 52.7025 73.2775 53.2665L73.5784 53.3766L73.1868 53.5664C72.6663 53.8187 71.8438 54.6432 71.3465 55.4111C70.634 56.5113 69.9216 57.9952 69.2601 59.7569C69.0952 60.1961 68.9414 60.5479 68.9185 60.5386C68.8955 60.5292 68.5276 60.1113 68.1007 59.6099C67.6739 59.1085 67.2088 58.5981 67.0673 58.4758C66.6198 58.089 65.6052 57.6136 65.2269 57.6136C65.1472 57.6136 65.0818 57.5998 65.0818 57.583C65.0818 57.5663 65.1656 57.2884 65.268 56.9657C65.6353 55.8076 66.4608 54.3854 67.4445 53.2158C68.1399 52.389 68.1564 52.3599 68.0609 52.127C67.9867 51.9464 67.7736 51.7976 67.5888 51.7976C67.3666 51.7976 66.3861 52.9401 65.6834 54.0177C65.0547 54.9821 64.4064 56.3983 64.2164 57.2227L64.1407 57.551H60.4998H56.8588L56.7831 57.2227C56.5931 56.3983 55.9449 54.9821 55.3161 54.0177C54.6135 52.9401 53.633 51.7976 53.4107 51.7976C53.226 51.7976 53.0128 51.9464 52.9387 52.127C52.8433 52.3596 52.8596 52.3885 53.5492 53.2105C54.5436 54.3957 55.3644 55.808 55.7316 56.9657C55.8339 57.2884 55.9177 57.5663 55.9177 57.583C55.9177 57.5998 55.8524 57.6136 55.7726 57.6136C55.3943 57.6136 54.3797 58.089 53.9322 58.4758C53.7907 58.5981 53.3257 59.1085 52.8989 59.6099C52.472 60.1113 52.1039 60.5292 52.081 60.5386C52.0579 60.548 51.9472 60.3088 51.8349 60.007C51.1522 58.1727 50.3748 56.5275 49.6902 55.469C49.1625 54.6529 48.3616 53.8421 47.8155 53.5712L47.4223 53.3762L47.7226 53.2662C48.4643 52.9948 48.8661 52.7721 49.1319 52.4851C49.5785 52.0029 49.7345 51.6079 49.9714 50.3593C50.143 49.4549 50.3715 49.0085 50.9637 48.4206C52.0072 47.3848 53.7044 46.6772 56.1344 46.2649C56.6112 46.1839 57.3496 46.0867 57.7753 46.0487C58.201 46.0106 58.6607 45.9688 58.797 45.9557C59.4187 45.8957 62.7504 45.9791 63.5648 46.0751ZM47.5313 54.4818C48.5807 55.0897 49.7892 57.1694 51.0048 60.4588C51.3777 61.4679 51.3975 61.5496 51.3975 62.0717C51.3975 63.016 51.6304 63.8497 52.0497 64.4065L52.1969 64.6019L51.7056 65.5322C51.0247 66.8217 50.78 67.6245 50.7788 68.5731C50.7782 69.0085 50.7463 69.0167 50.1668 68.7295C48.965 68.1339 47.9328 66.4399 47.1279 63.7422C46.4964 61.6256 45.9406 58.1427 45.9305 56.2377C45.9269 55.5605 45.9457 55.4059 46.0712 55.0808C46.1509 54.8744 46.3064 54.6141 46.4167 54.5023C46.6893 54.2262 47.0777 54.219 47.5313 54.4818ZM74.5828 54.5023C74.6932 54.6141 74.8488 54.8744 74.9286 55.0808C75.056 55.4099 75.073 55.5559 75.0678 56.269C75.0645 56.7161 75.0023 57.6013 74.9296 58.2359C74.2826 63.8817 72.746 67.8116 70.8231 68.7386C70.2507 69.0145 70.2213 69.0064 70.2207 68.5731C70.2195 67.625 69.9747 66.8217 69.2952 65.5345L68.8051 64.6066L69.0114 64.3151C69.4017 63.7634 69.602 63.0039 69.602 62.0757C69.602 61.5751 69.6283 61.4568 69.919 60.6504C71.3602 56.6521 72.9007 54.302 74.0819 54.2997C74.3387 54.2992 74.4113 54.3285 74.5828 54.5023ZM65.5846 58.6625C66.1594 58.8973 66.5871 59.2608 67.351 60.1636L68.0773 61.0218L66.7498 61.0533C66.0197 61.0706 65.3756 61.1081 65.3184 61.1365C65.0587 61.2655 65.0615 61.7837 65.3225 61.9248C65.4 61.9667 66.0426 61.9911 67.068 61.9911H68.6909L68.6571 62.4758C68.6212 62.9889 68.4416 63.5626 68.2328 63.8308L68.1069 63.9923H60.4998H52.8926L52.7668 63.8308C52.5579 63.5626 52.3783 62.9889 52.3424 62.4758L52.3086 61.9911H57.9328H63.5568L63.7002 61.8552C63.8851 61.6796 63.8914 61.3664 63.7131 61.2035C63.5876 61.0888 63.3838 61.0832 58.2526 61.0531L52.9225 61.0218L53.6445 60.1684C54.3698 59.3111 54.7715 58.951 55.2144 58.7611C55.8293 58.4974 55.8209 58.4979 60.6236 58.5093L65.2366 58.5203L65.5846 58.6625ZM68.4637 65.9622C69.084 67.1569 69.2248 67.578 69.2739 68.3855L69.3111 68.9953H60.4998H51.6884L51.7263 68.3855C51.7829 67.474 51.9029 67.1442 52.7726 65.5086L53.0803 64.9299L60.5123 64.9458L67.9442 64.9616L68.4637 65.9622ZM69.4546 72.9664C69.8402 74.6173 70.1564 75.9892 70.1574 76.015C70.1607 76.0987 69.0658 76.0692 68.9957 75.9838C68.9485 75.9262 67.5253 72.308 66.6459 70.01C66.6218 69.947 66.8384 69.9339 67.6846 69.9475L68.7537 69.9646L69.4546 72.9664Z" fill="url(#paint1_linear_21_162)"></path> <defs> <filter id="filter0_d_21_162" x="0" y="0" width="121" height="121" filterUnits="userSpaceOnUse" color-interpolation-filters="sRGB"> <feFlood flood-opacity="0" result="BackgroundImageFix"></feFlood> <feColorMatrix in="SourceAlpha" type="matrix" values="0 0 0 0 0 0 0 0 0 0 0 0 0 0 0 0 0 0 127 0" result="hardAlpha"></feColorMatrix> <feOffset></feOffset> <feGaussianBlur stdDeviation="12.5"></feGaussianBlur> <feComposite in2="hardAlpha" operator="out"></feComposite> <feColorMatrix type="matrix" values="0 0 0 0 0 0 0 0 0 0 0 0 0 0 0 0 0 0 0.15 0"></feColorMatrix> <feBlend mode="normal" in2="BackgroundImageFix" result="effect1_dropShadow_21_162"></feBlend> <feBlend mode="normal" in="SourceGraphic" in2="effect1_dropShadow_21_162" result="shape"></feBlend> </filter> <linearGradient id="paint0_linear_21_162" x1="29" y1="25" x2="89" y2="96" gradientUnits="userSpaceOnUse"> <stop stop-color="#16171A"></stop> <stop offset="1" stop-color="#2A2C2F"></stop> </linearGradient> <linearGradient id="paint1_linear_21_162" x1="45" y1="72" x2="77.7921" y2="63.1113" gradientUnits="userSpaceOnUse"> <stop offset="0.216958" stop-color="#1A59B8"></stop> <stop offset="0.953732" stop-color="#861DFF"></stop> </linearGradient> </defs> </svg> 