<?xml version="1.0" encoding="UTF-8"?> <svg xmlns="http://www.w3.org/2000/svg" width="121" height="121" viewBox="0 0 121 121" fill="none"> <g filter="url(#filter0_d_19_105)"> <rect x="25" y="25" width="71" height="71" rx="10" fill="url(#paint0_linear_19_105)"></rect> </g> <path fill-rule="evenodd" clip-rule="evenodd" d="M39.2148 45.2135L39 45.4269V61V76.5731L39.2148 76.7865L39.4295 77H60H80.5705L80.7852 76.7865L81 76.5731V61V45.4269L80.7852 45.2135L80.5705 45H60H39.4295L39.2148 45.2135ZM59.3 48.1304V49.8696H58.4785C57.8232 49.8696 57.6204 49.9003 57.4763 50.0217C57.2817 50.1857 55.1 55.8642 55.1 56.2065C55.1 56.3125 55.1967 56.4952 55.3148 56.6126L55.5295 56.8261H60H64.4705L64.6852 56.6126C64.8033 56.4952 64.9 56.3125 64.9 56.2065C64.9 55.8642 62.7183 50.1857 62.5237 50.0217C62.3797 49.9003 62.1768 49.8696 61.5215 49.8696H60.7V48.1304V46.3913H70.15H79.6V49.913V53.4348H79.3897C79.0573 53.4348 77.9697 53.8297 77.4307 54.146C76.8 54.5162 75.8756 55.4348 75.5032 56.0616C75.3434 56.3305 75.1071 56.8375 74.9782 57.1883L74.7437 57.8261L74.7195 66.7174L74.6953 75.6087H73.9976H73.3V68.8657V62.1225L73.0852 61.9091C72.8011 61.6267 72.3989 61.6267 72.1148 61.9091L71.9 62.1225V65.3874V68.6522H70.5H69.1V66.7787C69.1 64.9054 69.1 64.9051 68.8852 64.6917C68.7671 64.5743 68.5998 64.4783 68.5133 64.4783C68.3685 64.4783 68.3586 64.3872 68.3866 63.3089C68.4166 62.1528 68.4143 62.1369 68.1937 61.9175L67.9705 61.6957H66.3H64.6295L64.4063 61.9175C64.1856 62.1369 64.1834 62.1528 64.2134 63.3089L64.2437 64.4783H63.8819L63.5201 64.4783L63.4599 63.9989C63.378 63.3476 62.8907 62.4096 62.4011 61.9611C62.0309 61.622 61.057 61.0872 60.8094 61.087C60.7339 61.087 60.7 60.9238 60.7 60.5613C60.7 60.119 60.6659 60.0017 60.4852 59.8222C60.2011 59.5397 59.7989 59.5397 59.5148 59.8222C59.3341 60.0017 59.3 60.119 59.3 60.5613C59.3 60.9476 59.2683 61.087 59.1805 61.087C58.8946 61.087 57.8083 61.7243 57.4671 62.0921C57.0102 62.5846 56.6152 63.4013 56.5384 64.012L56.4799 64.4783L56.1181 64.4783H55.7562L55.7866 63.3089C55.8166 62.1528 55.8143 62.1369 55.5937 61.9175L55.3705 61.6957H53.7H52.0295L51.8063 61.9175C51.5856 62.1369 51.5834 62.1528 51.6134 63.3089C51.6414 64.3872 51.6315 64.4783 51.4867 64.4783C51.4002 64.4783 51.2329 64.5743 51.1148 64.6917C50.9 64.9051 50.9 64.9054 50.9 66.7787V68.6522H49.5H48.1V65.3874V62.1225L47.8852 61.9091C47.6011 61.6267 47.1989 61.6267 46.9148 61.9091L46.7 62.1225V68.8657V75.6087H46H45.3V67.0511C45.3 57.7909 45.2989 57.7662 44.8271 56.7063C44.5202 56.0165 43.9119 55.1876 43.3543 54.699C42.7719 54.1889 41.6555 53.6321 40.9464 53.4982L40.4 53.395V49.8931V46.3913H49.85H59.3V48.1304ZM62.3851 53.2898C62.8058 54.4058 63.15 55.345 63.15 55.3768C63.15 55.4087 61.7325 55.4348 60 55.4348C58.2675 55.4348 56.85 55.4087 56.85 55.3768C56.85 55.345 57.1942 54.4058 57.6149 53.2898L58.3798 51.2609H60H61.6201L62.3851 53.2898ZM41.5189 55.173C42.6349 55.6917 43.588 56.9164 43.8126 58.1205C43.867 58.4121 43.9 61.803 43.9 67.0988V75.6087H42.15H40.4V65.2065V54.8043L40.6844 54.8608C40.8408 54.8918 41.2163 55.0323 41.5189 55.173ZM79.6 65.2174V75.6087H77.85H76.1V67.0183C76.1 57.6803 76.0858 57.9717 76.5894 56.984C76.8483 56.4762 77.5544 55.697 78.008 55.4183C78.3961 55.18 79.2473 54.8309 79.4469 54.8282C79.5919 54.8262 79.6 55.3781 79.6 65.2174ZM60.6461 62.497C61.1267 62.6382 61.8516 63.3585 61.9936 63.8362C62.1988 64.5263 62.348 64.4783 60 64.4783C57.652 64.4783 57.8012 64.5263 58.0064 63.8362C58.1381 63.3932 58.8705 62.6395 59.3 62.505C59.719 62.3737 60.216 62.3708 60.6461 62.497ZM54.4 63.5691C54.4 64.1494 54.1468 64.4783 53.7 64.4783C53.2532 64.4783 53 64.1494 53 63.5691V63.087H53.7H54.4V63.5691ZM67 63.5691C67 64.1494 66.7468 64.4783 66.3 64.4783C65.8532 64.4783 65.6 64.1494 65.6 63.5691V63.087H66.3H67V63.5691ZM67.7 66.5652V67.2609H60H52.3V66.5652V65.8696H60H67.7V66.5652ZM53.7 72.1304V75.6087H53H52.3V72.1304V68.6522H53H53.7V72.1304ZM64.9 72.1304V75.6087H60H55.1V72.1304V68.6522H60H64.9V72.1304ZM67.7 72.1304V75.6087H67H66.3V72.1304V68.6522H67H67.7V72.1304ZM50.9 70.7391V71.4348H49.5H48.1V70.7391V70.0435H49.5H50.9V70.7391ZM71.9 70.7391V71.4348H70.5H69.1V70.7391V70.0435H70.5H71.9V70.7391ZM50.9 74.2174V75.6087H49.5H48.1V74.2174V72.8261H49.5H50.9V74.2174ZM71.9 74.2174V75.6087H70.5H69.1V74.2174V72.8261H70.5H71.9V74.2174Z" fill="url(#paint1_linear_19_105)"></path> <defs> <filter id="filter0_d_19_105" x="0" y="0" width="121" height="121" filterUnits="userSpaceOnUse" color-interpolation-filters="sRGB"> <feFlood flood-opacity="0" result="BackgroundImageFix"></feFlood> <feColorMatrix in="SourceAlpha" type="matrix" values="0 0 0 0 0 0 0 0 0 0 0 0 0 0 0 0 0 0 127 0" result="hardAlpha"></feColorMatrix> <feOffset></feOffset> <feGaussianBlur stdDeviation="12.5"></feGaussianBlur> <feComposite in2="hardAlpha" operator="out"></feComposite> <feColorMatrix type="matrix" values="0 0 0 0 0 0 0 0 0 0 0 0 0 0 0 0 0 0 0.15 0"></feColorMatrix> <feBlend mode="normal" in2="BackgroundImageFix" result="effect1_dropShadow_19_105"></feBlend> <feBlend mode="normal" in="SourceGraphic" in2="effect1_dropShadow_19_105" result="shape"></feBlend> </filter> <linearGradient id="paint0_linear_19_105" x1="29" y1="25" x2="89" y2="96" gradientUnits="userSpaceOnUse"> <stop stop-color="#16171A"></stop> <stop offset="1" stop-color="#2A2C2F"></stop> </linearGradient> <linearGradient id="paint1_linear_19_105" x1="39" y1="72" x2="81.0245" y2="56.5667" gradientUnits="userSpaceOnUse"> <stop offset="0.216958" stop-color="#1A59B8"></stop> <stop offset="0.953732" stop-color="#861DFF"></stop> </linearGradient> </defs> </svg> 