<?xml version="1.0" encoding="UTF-8"?> <svg xmlns="http://www.w3.org/2000/svg" width="121" height="121" viewBox="0 0 121 121" fill="none"> <g filter="url(#filter0_d_21_191)"> <rect x="25" y="25" width="71" height="71" rx="10" fill="url(#paint0_linear_21_191)"></rect> </g> <path fill-rule="evenodd" clip-rule="evenodd" d="M66.5751 45.0763C66.2648 45.241 66.2463 45.3505 66.2438 47.0397C66.242 48.2898 66.261 48.6576 66.3345 48.7938C66.5592 49.2099 67.2293 49.2099 67.454 48.7938C67.5771 48.5657 67.5901 45.5856 67.469 45.3312C67.3261 45.0307 66.8933 44.9073 66.5751 45.0763ZM61.1501 47.5966C60.7936 47.7214 60.6092 48.1544 60.7794 48.467C60.8332 48.5658 61.3317 49.0756 61.8871 49.6C62.8751 50.5327 62.9031 50.5534 63.1786 50.5534C63.5815 50.5534 63.8264 50.3217 63.8264 49.9404C63.8264 49.667 63.813 49.6503 62.8309 48.696C61.6813 47.5788 61.5138 47.4693 61.1501 47.5966ZM72.0183 47.7265C71.8747 47.8279 71.3533 48.3056 70.8597 48.788C69.98 49.6474 69.9621 49.6704 69.9621 49.9412C69.9621 50.3217 70.2073 50.5534 70.6099 50.5534C70.8854 50.5534 70.9134 50.5327 71.9014 49.6C72.4569 49.0756 72.9553 48.5658 73.0091 48.467C73.2096 48.0989 72.9507 47.645 72.5009 47.576C72.3243 47.5489 72.2264 47.5794 72.0183 47.7265ZM66.2819 51.6818C65.8688 51.7812 65.2809 52.1145 64.9956 52.411C64.849 52.5633 64.6388 52.8727 64.5285 53.0984C64.3409 53.4824 64.3248 53.5737 64.2778 54.5164C64.249 55.0969 64.1827 55.6829 64.1215 55.899C63.5503 57.9188 61.3215 59.7278 57.8212 61.0128C57.017 61.3079 55.7368 61.6969 55.1449 61.8259C55.0058 61.8563 54.956 61.8212 54.8073 61.5882C54.7113 61.4379 54.5082 61.2285 54.356 61.1228C53.817 60.7489 53.7654 60.7444 49.9732 60.7444C46.2293 60.7444 46.2481 60.7428 46.0845 61.0865C45.9718 61.3236 45.9718 76.4209 46.0845 76.6579C46.2481 77.0016 46.2293 77 49.9732 77C53.7654 77 53.817 76.9956 54.356 76.6216C54.5082 76.516 54.7113 76.3054 54.8073 76.1538C54.9044 76.0002 55.0184 75.8904 55.0644 75.906C55.1099 75.9214 55.7984 76.0904 56.5944 76.2814C59.4185 76.9594 60.1569 77.0154 65.9152 76.9884L70.1253 76.9687L70.5614 76.7709C71.1682 76.4955 71.5462 76.1411 71.8398 75.572C72.0703 75.1252 72.0835 75.0672 72.0823 74.5024C72.0812 73.9785 72.058 73.857 71.8933 73.5131C71.79 73.2975 71.7171 73.1119 71.7313 73.1007C71.7456 73.0895 71.9125 73.0006 72.1024 72.9032C72.5536 72.6716 72.9267 72.2766 73.1824 71.7595C73.3698 71.3808 73.3889 71.2864 73.3878 70.7479C73.3867 70.2276 73.3632 70.1053 73.1988 69.7618C73.0955 69.5462 73.0226 69.3606 73.0368 69.3494C73.051 69.3382 73.218 69.2493 73.4078 69.1519C73.8591 68.9204 74.2322 68.5253 74.4879 68.0082C74.6753 67.6295 74.6944 67.5351 74.6933 66.9966C74.6922 66.4763 74.6687 66.354 74.5042 66.0105C74.401 65.7949 74.3281 65.6093 74.3423 65.5981C74.3565 65.5869 74.5235 65.4981 74.7133 65.4006C75.1646 65.1691 75.5377 64.7741 75.7934 64.2569C75.9805 63.8787 76 63.7828 76 63.242C76 62.6784 75.9863 62.6183 75.7562 62.1724C75.4626 61.6034 75.0847 61.2489 74.4778 60.9736L74.0418 60.7757L71.3166 60.7569C69.8178 60.7466 68.5919 60.7184 68.5926 60.6944C68.5933 60.6703 68.6942 60.3495 68.8168 59.9814C69.3913 58.2578 69.6796 55.8564 69.5134 54.1797C69.4523 53.5632 69.4095 53.3973 69.2136 53.0162C68.7895 52.1915 67.9911 51.6873 67.0411 51.6439C66.7629 51.6312 66.4212 51.6483 66.2819 51.6818ZM58.7422 52.954C58.4333 53.1179 58.3304 53.4782 58.5016 53.7955C58.6606 54.0899 58.8191 54.1172 60.3732 54.1172C61.9349 54.1172 62.0986 54.0873 62.2471 53.775C62.3997 53.4542 62.2896 53.1046 61.9892 52.9558C61.739 52.8319 58.9751 52.8303 58.7422 52.954ZM67.6113 53.0776C68.0402 53.3494 68.1435 53.5869 68.2082 54.4501C68.2948 55.6057 68.1382 57.5005 67.8639 58.616C67.731 59.1563 67.533 59.7773 67.3398 60.2599L67.1459 60.7444H65.9725C65.0845 60.7444 64.7552 60.7661 64.6191 60.8335C64.4302 60.9271 64.2833 61.1643 64.2833 61.3757C64.2833 61.5515 64.4522 61.8444 64.5909 61.9091C64.6551 61.9391 66.7637 61.9777 69.2768 61.9949L73.846 62.0261L74.0951 62.1745C74.2322 62.2561 74.4231 62.4369 74.5194 62.5763C74.6648 62.7867 74.6945 62.8995 74.6945 63.2407C74.6945 63.7331 74.529 64.0375 74.1203 64.2967L73.8559 64.4645L71.8927 64.4963C70.8129 64.5139 69.877 64.5525 69.8129 64.5821C69.6723 64.647 69.5052 64.9396 69.5052 65.1209C69.5052 65.3028 69.6727 65.5953 69.8129 65.6585C69.877 65.6874 70.5192 65.726 71.24 65.7442C72.5253 65.7768 72.5555 65.7806 72.8148 65.9452C73.2221 66.2035 73.389 66.5092 73.389 66.9966C73.389 67.484 73.2221 67.7897 72.8148 68.048L72.5504 68.2157L70.5872 68.2476C69.5074 68.2652 68.5715 68.3038 68.5074 68.3333C68.3668 68.3982 68.1997 68.6909 68.1997 68.8722C68.1997 69.0541 68.3672 69.3466 68.5074 69.4098C68.5715 69.4387 69.2137 69.4772 69.9345 69.4955C71.2198 69.5281 71.25 69.5319 71.5093 69.6964C71.9166 69.9548 72.0836 70.2604 72.0836 70.7479C72.0836 71.2353 71.9166 71.5409 71.5093 71.7993L71.2449 71.967L69.2817 71.9989C68.202 72.0165 67.2661 72.0551 67.2019 72.0846C67.0614 72.1495 66.8943 72.4422 66.8943 72.6235C66.8943 72.8054 67.0617 73.0979 67.2019 73.1611C67.2661 73.1899 67.9082 73.2285 68.629 73.2468C69.9143 73.2793 69.9445 73.2832 70.2039 73.4477C70.6125 73.707 70.7781 74.0113 70.7781 74.5037C70.7781 74.8449 70.7483 74.9577 70.6029 75.1681C70.5067 75.3075 70.3157 75.4884 70.1787 75.5699L69.9295 75.7183L65.8172 75.7379C60.1616 75.7649 59.5409 75.7154 56.6462 75.0075L55.1776 74.6483L55.1609 68.8868L55.1443 63.1252L55.422 63.0569C59.7212 61.9992 62.9476 60.2162 64.4841 58.0489C65.2106 57.0242 65.5086 56.1073 65.5808 54.6748C65.6237 53.8215 65.648 53.6723 65.7771 53.4724C65.9386 53.222 66.2146 53.0098 66.489 52.9249C66.791 52.8315 67.3412 52.9063 67.6113 53.0776ZM71.797 52.954C71.4881 53.1179 71.3852 53.4782 71.5565 53.7955C71.7154 54.0899 71.8739 54.1172 73.428 54.1172C74.9897 54.1172 75.1534 54.0873 75.3019 53.775C75.4545 53.4542 75.3445 53.1046 75.0441 52.9558C74.7938 52.8319 72.03 52.8303 71.797 52.954ZM53.4823 62.0696C53.8549 62.2322 53.8394 61.9375 53.8394 68.8722C53.8394 75.807 53.8549 75.5122 53.4823 75.6749C53.3575 75.7293 52.4981 75.7496 50.3116 75.7496H47.312V68.8722V61.9949H50.3116C52.4981 61.9949 53.3575 62.0151 53.4823 62.0696ZM51.562 64.583C50.9962 64.8834 51.2329 65.7461 51.8812 65.7461C52.212 65.7461 52.534 65.4407 52.534 65.127C52.534 64.6576 51.9924 64.3545 51.562 64.583ZM51.562 67.0839C51.236 67.2569 51.2332 67.2817 51.2308 70.1041C51.2283 72.9401 51.2344 72.9963 51.5643 73.1596C51.9022 73.327 52.3112 73.211 52.456 72.9066C52.5668 72.6736 52.5668 67.5717 52.456 67.3387C52.3131 67.0382 51.8803 66.9149 51.562 67.0839Z" fill="url(#paint1_linear_21_191)"></path> <defs> <filter id="filter0_d_21_191" x="0" y="0" width="121" height="121" filterUnits="userSpaceOnUse" color-interpolation-filters="sRGB"> <feFlood flood-opacity="0" result="BackgroundImageFix"></feFlood> <feColorMatrix in="SourceAlpha" type="matrix" values="0 0 0 0 0 0 0 0 0 0 0 0 0 0 0 0 0 0 127 0" result="hardAlpha"></feColorMatrix> <feOffset></feOffset> <feGaussianBlur stdDeviation="12.5"></feGaussianBlur> <feComposite in2="hardAlpha" operator="out"></feComposite> <feColorMatrix type="matrix" values="0 0 0 0 0 0 0 0 0 0 0 0 0 0 0 0 0 0 0.15 0"></feColorMatrix> <feBlend mode="normal" in2="BackgroundImageFix" result="effect1_dropShadow_21_191"></feBlend> <feBlend mode="normal" in="SourceGraphic" in2="effect1_dropShadow_21_191" result="shape"></feBlend> </filter> <linearGradient id="paint0_linear_21_191" x1="29" y1="25" x2="89" y2="96" gradientUnits="userSpaceOnUse"> <stop stop-color="#16171A"></stop> <stop offset="1" stop-color="#2A2C2F"></stop> </linearGradient> <linearGradient id="paint1_linear_21_191" x1="46" y1="72" x2="77.8727" y2="63.6392" gradientUnits="userSpaceOnUse"> <stop offset="0.216958" stop-color="#1A59B8"></stop> <stop offset="0.953732" stop-color="#861DFF"></stop> </linearGradient> </defs> </svg> 