<?xml version="1.0" encoding="UTF-8"?> <svg xmlns="http://www.w3.org/2000/svg" width="121" height="121" viewBox="0 0 121 121" fill="none"> <g filter="url(#filter0_d_19_129)"> <rect x="25" y="25" width="71" height="71" rx="10" fill="url(#paint0_linear_19_129)"></rect> </g> <path fill-rule="evenodd" clip-rule="evenodd" d="M58.0282 42.079C55.7605 42.4982 53.943 44.0086 53.0864 46.186L52.8644 46.7502L53.0263 46.8097C53.1153 46.8425 54.7348 47.4105 56.6252 48.0721C58.5155 48.7336 60.1265 49.3085 60.205 49.3495C60.4871 49.4966 60.3384 49.9252 60.0054 49.9252C59.9149 49.9252 58.2644 49.3723 56.3376 48.6966C54.4108 48.0209 52.7863 47.4595 52.7275 47.449C52.6509 47.4353 52.4656 47.849 52.0721 48.9126C51.7703 49.7281 51.5224 50.431 51.5212 50.4746C51.5199 50.5183 53.1297 51.1168 55.0987 51.8049C57.0677 52.4929 58.7369 53.0849 58.8084 53.1204C58.8883 53.1601 58.9382 53.268 58.9382 53.4009C58.9382 53.8755 58.9012 53.867 54.9768 52.4925C52.9816 51.7936 51.317 51.2323 51.2776 51.2451C51.1926 51.2728 50.0809 54.2614 50.1358 54.3148C50.1565 54.335 51.7032 54.8858 53.5728 55.5389C57.4785 56.9031 57.5038 56.9129 57.551 57.0889C57.595 57.2527 57.4117 57.5194 57.2552 57.5194C57.1911 57.5194 55.5047 56.9465 53.5077 56.2464C51.5107 55.5463 49.8647 54.9851 49.85 54.9995C49.7618 55.0855 48.712 58.0656 48.7564 58.1038C48.7862 58.1296 50.2798 58.6634 52.0753 59.2902C56.3706 60.7897 56.1045 60.6882 56.1563 60.8474C56.2225 61.0509 56.0674 61.2803 55.8636 61.2803C55.767 61.2803 54.06 60.7105 52.0705 60.014C50.081 59.3176 48.4428 58.758 48.43 58.7704C48.4173 58.7829 48.3152 59.1167 48.2032 59.5123C48.0276 60.1328 47.9997 60.3656 48 61.208C48.0004 62.2812 48.1028 62.7961 48.4955 63.7012C48.9707 64.7965 49.953 65.9311 50.9394 66.5239L51.4208 66.8132L51.4697 70.6464C51.4966 72.7547 51.5187 75.4968 51.5187 76.7398L51.5188 79H53.7332H55.9477L55.9961 78.1207C56.0228 77.6372 56.0447 76.4359 56.0447 75.4514V73.6614L58.6229 71.9015L61.2012 70.1417L62.0173 70.0892C62.4662 70.0603 63.1005 69.9697 63.427 69.888C64.8288 69.5369 66.2016 68.6162 67.0411 67.4641C67.3301 67.0673 67.9904 65.8217 67.9892 65.6755C67.9887 65.62 66.6431 65.114 64.5948 64.3991C62.7283 63.7476 61.1595 63.1821 61.1084 63.1426C60.9906 63.0512 60.9885 62.7822 61.1047 62.6689C61.1537 62.6212 61.2613 62.5821 61.3439 62.5821C61.4265 62.5821 62.6468 62.9872 64.0557 63.4822C65.4646 63.9771 66.9872 64.5112 67.4393 64.6689L68.2613 64.9557L68.8317 63.3964C69.1454 62.5388 69.3922 61.8276 69.3802 61.8158C69.3682 61.8041 67.8631 61.2721 66.0357 60.6335C64.2081 59.9949 62.6482 59.4387 62.5691 59.3974C62.2978 59.2558 62.4229 58.8015 62.7322 58.8052C62.8287 58.8064 64.4021 59.3312 66.2286 59.9715C68.0552 60.6118 69.5758 61.1356 69.6077 61.1356C69.666 61.1356 70.8149 58.0818 70.7727 58.039C70.7603 58.0265 69.2026 57.4728 67.3112 56.8085L63.8722 55.6008V55.3565C63.8722 54.8734 63.8575 54.8702 67.4819 56.1425C69.3324 56.7921 70.8934 57.3269 70.9509 57.331C71.0215 57.3361 71.2408 56.8399 71.6289 55.7968C72.1893 54.2909 72.1989 54.2537 72.0438 54.197C71.9566 54.165 70.5329 53.6658 68.8803 53.0875C65.2203 51.8069 65.2602 51.8223 65.2088 51.6644C65.147 51.4748 65.2394 51.3034 65.4282 51.2573C65.5377 51.2304 66.7665 51.6269 68.9998 52.4095L72.4045 53.6026L72.5291 53.337C72.5975 53.1909 72.7303 52.7947 72.8241 52.4566C73.0593 51.6085 73.0585 50.162 72.8223 49.3104C72.3268 47.5242 71.0846 46.0182 69.4366 45.2057C69.016 44.9984 61.4393 42.3344 60.756 42.1537C60.1199 41.9854 58.739 41.9476 58.0282 42.079ZM60.6447 43.4041C61.6359 43.694 68.418 46.1021 68.9174 46.3415C70.2049 46.9586 71.1942 48.1713 71.6049 49.6359C71.7495 50.1515 71.7859 51.6739 71.6587 51.8879C71.5967 51.9922 71.2486 51.8872 68.7319 51.0048C67.1608 50.454 65.7585 50.0022 65.6157 50.0008C64.8976 49.9939 64.1605 50.5139 63.9843 51.1518C63.8244 51.7307 64.0563 52.4274 64.5251 52.7759C64.6678 52.8821 65.9796 53.3828 67.6489 53.9683C69.2317 54.5234 70.5394 54.99 70.5549 55.0052C70.5879 55.0374 70.3444 55.6822 70.2729 55.7519C70.2462 55.778 68.9453 55.3484 67.3821 54.7973C64.9532 53.9411 64.4804 53.7964 64.1306 53.8025C63.2254 53.8182 62.5739 54.4465 62.5633 55.3139C62.5571 55.8171 62.7931 56.3065 63.1703 56.5729C63.3374 56.6909 64.6053 57.174 66.315 57.771C68.9914 58.7056 69.1765 58.7814 69.1307 58.9229C68.9686 59.4238 68.8869 59.5785 68.7956 59.5576C68.7402 59.5448 67.4488 59.0974 65.9261 58.5631C63.6462 57.7632 63.0856 57.5917 62.7513 57.5917C62.3251 57.5917 61.9314 57.7426 61.6279 58.0221C60.8937 58.6983 61.0626 59.9906 61.9464 60.4596C62.1078 60.5452 63.4752 61.0469 64.9851 61.5744C66.4949 62.1018 67.742 62.5423 67.7564 62.5531C67.7791 62.5702 67.5525 63.3083 67.5083 63.3614C67.4991 63.3723 66.1847 62.9248 64.5873 62.3669C61.4407 61.2681 61.2772 61.232 60.6788 61.5062C59.6118 61.9951 59.4356 63.3936 60.3508 64.1097C60.5232 64.2446 61.5345 64.6355 63.427 65.2987C64.9777 65.8421 66.2602 66.2994 66.2772 66.3148C66.3458 66.3773 65.7121 67.1724 65.3134 67.5241C64.3755 68.3515 63.2735 68.796 62.0173 68.8538C61.5163 68.8768 61.1066 68.8528 60.756 68.7798C60.0072 68.6238 52.6302 66.0253 51.9329 65.6718C50.2997 64.844 49.1977 63.0019 49.2262 61.1473C49.2401 60.2418 48.9134 60.2124 52.372 61.4309C55.7209 62.6106 55.892 62.6485 56.536 62.3534C57.1316 62.0805 57.5185 61.3711 57.4203 60.7323C57.3945 60.5645 57.2718 60.2776 57.1476 60.0949C56.8516 59.6592 56.6549 59.5731 53.2564 58.3913C51.7433 57.8651 50.4615 57.4083 50.4082 57.3761C50.3299 57.3289 50.3374 57.2464 50.4474 56.9483C50.5223 56.7453 50.6151 56.5791 50.6537 56.5791C50.6923 56.5791 52.0796 57.0546 53.7366 57.6357C55.3938 58.2168 56.8746 58.7093 57.0274 58.73C57.4817 58.7918 57.9607 58.6172 58.3514 58.2474C58.7995 57.8231 58.9317 57.3337 58.7549 56.7535C58.634 56.3564 58.2397 55.898 57.9096 55.7705C57.802 55.729 56.3808 55.2263 54.7514 54.6533C53.1219 54.0804 51.7726 53.5959 51.7529 53.5768C51.7332 53.5576 51.7798 53.362 51.8565 53.1422C51.962 52.8398 52.0237 52.7531 52.1098 52.7864C52.1724 52.8106 53.5592 53.3041 55.1914 53.8829C58.5697 55.081 58.7551 55.1188 59.4115 54.7438C59.9054 54.4617 60.1492 54.0705 60.1864 53.5005C60.2226 52.9467 60.0276 52.4844 59.6346 52.1922C59.4824 52.079 58.1622 51.5757 56.322 50.9292C54.6392 50.338 53.2207 49.8388 53.1698 49.8197C53.1 49.7937 53.1152 49.6912 53.2317 49.4031C53.3166 49.193 53.3946 49.0128 53.4051 49.0026C53.4155 48.9924 54.8165 49.4725 56.5183 50.0694C59.0879 50.9707 59.6817 51.1547 60.0203 51.1547C60.912 51.1547 61.6092 50.4723 61.6092 49.5997C61.6092 49.1257 61.3138 48.5942 60.9139 48.3486C60.7389 48.2412 59.2462 47.6834 57.5968 47.1092C55.9474 46.535 54.5841 46.0551 54.5674 46.0428C54.5055 45.9974 54.8317 45.4877 55.2092 45.0399C55.9848 44.1199 57.1022 43.5007 58.4063 43.2681C58.934 43.174 60.1003 43.2449 60.6447 43.4041ZM56.2672 68.8067C57.9607 69.2899 59.3884 69.7077 59.4399 69.7352C59.4983 69.7664 58.9073 70.2124 57.8682 70.9214C56.9524 71.5463 56.1528 72.0764 56.0916 72.0992C56.0303 72.1221 55.256 71.8942 54.3708 71.5926C53.4856 71.291 52.7488 71.0442 52.7336 71.0442C52.6873 71.0442 52.7027 67.8891 52.7493 67.8437C52.7732 67.8204 52.8817 67.8299 52.9905 67.8648C53.0992 67.8996 54.5738 68.3235 56.2672 68.8067ZM54.7831 75.4018L54.7834 77.7705H53.7817H52.7801V75.0615V72.3526L53.7814 72.6929L54.7828 73.0332L54.7831 75.4018Z" fill="url(#paint1_linear_19_129)"></path> <defs> <filter id="filter0_d_19_129" x="0" y="0" width="121" height="121" filterUnits="userSpaceOnUse" color-interpolation-filters="sRGB"> <feFlood flood-opacity="0" result="BackgroundImageFix"></feFlood> <feColorMatrix in="SourceAlpha" type="matrix" values="0 0 0 0 0 0 0 0 0 0 0 0 0 0 0 0 0 0 127 0" result="hardAlpha"></feColorMatrix> <feOffset></feOffset> <feGaussianBlur stdDeviation="12.5"></feGaussianBlur> <feComposite in2="hardAlpha" operator="out"></feComposite> <feColorMatrix type="matrix" values="0 0 0 0 0 0 0 0 0 0 0 0 0 0 0 0 0 0 0.15 0"></feColorMatrix> <feBlend mode="normal" in2="BackgroundImageFix" result="effect1_dropShadow_19_129"></feBlend> <feBlend mode="normal" in="SourceGraphic" in2="effect1_dropShadow_19_129" result="shape"></feBlend> </filter> <linearGradient id="paint0_linear_19_129" x1="29" y1="25" x2="89" y2="96" gradientUnits="userSpaceOnUse"> <stop stop-color="#16171A"></stop> <stop offset="1" stop-color="#2A2C2F"></stop> </linearGradient> <linearGradient id="paint1_linear_19_129" x1="48" y1="73.2187" x2="75.4086" y2="68.0369" gradientUnits="userSpaceOnUse"> <stop offset="0.216958" stop-color="#1A59B8"></stop> <stop offset="0.953732" stop-color="#861DFF"></stop> </linearGradient> </defs> </svg> 