<?xml version="1.0" encoding="UTF-8"?> <svg xmlns="http://www.w3.org/2000/svg" width="121" height="121" viewBox="0 0 121 121" fill="none"> <g filter="url(#filter0_d_19_147)"> <rect x="25" y="25" width="71" height="71" rx="10" fill="url(#paint0_linear_19_147)"></rect> </g> <path fill-rule="evenodd" clip-rule="evenodd" d="M50.4926 42.163C49.8872 42.353 49.289 42.9017 48.9744 43.556C48.7693 43.9825 48.7007 44.298 48.6617 44.9952L48.6117 45.8882H48.1334C46.8946 45.8882 46 46.8056 46 48.0758C46 49.352 46.8944 50.2633 48.147 50.2633H48.6387V51.1454V52.0275L48.0352 52.0969C46.6235 52.2595 45.9298 53.085 46.0182 54.4971C46.0919 55.6747 46.8719 56.4235 48.0279 56.4267L48.6387 56.4283V57.3729V58.3175H48.147C46.8944 58.3175 46 59.2288 46 60.5051C46 61.7813 46.8944 62.6926 48.147 62.6926H48.6387V63.6372V64.5819L48.0279 64.5835C47.2724 64.5856 46.7699 64.8478 46.3462 65.4614C46.0726 65.8573 46.0489 65.9577 46.0489 66.7197C46.0489 67.4817 46.0726 67.5821 46.3462 67.978C46.7311 68.5355 47.2597 68.8299 48.0248 68.9132L48.6387 68.9801V69.8634V70.7468H48.147C46.8944 70.7468 46 71.6581 46 72.9343C46 74.2045 46.8946 75.1219 48.1334 75.1219H48.6117L48.6617 76.0149C48.7221 77.0935 49.025 77.8157 49.6421 78.3532C50.4169 79.0279 49.9101 78.9998 61.3438 78.9998C72.7775 78.9998 72.2707 79.0279 73.0455 78.3532C73.2683 78.1591 73.5742 77.7443 73.7253 77.4312L74 76.862V60.5051V44.1481L73.7253 43.579C73.3902 42.8846 72.803 42.3533 72.1541 42.1572C71.4482 41.944 51.1738 41.9494 50.4926 42.163ZM72.1604 43.4625C72.3122 43.5776 72.5243 43.8237 72.6318 44.0094C72.8251 44.3432 72.8272 44.5258 72.8272 60.5051C72.8272 76.4843 72.8251 76.6669 72.6318 77.0007C72.5243 77.1865 72.3122 77.4326 72.1604 77.5476L71.8844 77.7569H61.3438H50.8032L50.5272 77.5476C50.3754 77.4326 50.1634 77.1865 50.0558 77.0007C49.8628 76.6674 49.8601 76.4603 49.8348 60.719C49.8178 50.1587 49.8427 44.6483 49.9084 44.3999C50.0361 43.9175 50.3509 43.5138 50.7317 43.3441C50.9796 43.2337 52.884 43.2138 61.4588 43.2316L71.8845 43.2532L72.1604 43.4625ZM48.6387 48.0758V49.0701H48.2065C47.884 49.0701 47.6978 49.0047 47.4735 48.8127C47.2142 48.5908 47.1728 48.4891 47.1728 48.0758C47.1728 47.6624 47.2142 47.5608 47.4735 47.3389C47.6978 47.1469 47.884 47.0815 48.2065 47.0815H48.6387V48.0758ZM60.9798 49.3695C60.2913 49.5273 59.7812 50.122 59.7805 50.7672C59.7801 51.1087 59.7607 51.1282 59.257 51.2897C58.6926 51.4707 57.7999 52.0191 57.2062 52.5494C56.3528 53.3118 55.6196 54.6586 55.379 55.9062C55.2992 56.3194 55.2125 56.5277 55.1203 56.5277C54.8499 56.5277 54.3936 56.84 54.2055 57.154C53.9375 57.601 53.9405 58.6206 54.211 59.0659C54.6142 59.7297 54.3917 59.7096 61.3601 59.7096C67.2656 59.7096 67.6709 59.6985 67.9835 59.5279C68.1666 59.428 68.3969 59.1937 68.4951 59.0074C68.7189 58.5828 68.7334 57.6296 68.5223 57.2144C68.3641 56.9033 67.8558 56.5287 67.5908 56.5281C67.4776 56.5278 67.3926 56.3222 67.2722 55.7571C66.9885 54.4262 66.2606 53.2127 65.214 52.326C64.6937 51.8853 64.1622 51.5847 63.1902 51.1817C62.9882 51.0979 62.924 50.9885 62.8798 50.6534C62.76 49.7449 61.8942 49.1598 60.9798 49.3695ZM61.5457 50.5651C61.8515 50.7317 61.7637 50.86 61.3438 50.86C60.9309 50.86 60.8389 50.7385 61.1239 50.5696C61.3385 50.4424 61.3207 50.4426 61.5457 50.5651ZM62.8775 52.3655C64.4846 52.8681 65.8725 54.464 66.173 56.1548L66.2393 56.5277H61.3438H56.4483L56.516 56.1548C56.755 54.8351 57.5202 53.6748 58.6379 52.9371C59.9306 52.0839 61.3607 51.8911 62.8775 52.3655ZM48.6387 54.2407V55.2351H48.1457C47.4953 55.2351 47.1728 54.9376 47.1728 54.3382C47.1728 54.1133 47.2202 53.8391 47.2782 53.7289C47.4088 53.4806 47.8995 53.2554 48.3211 53.2503L48.6387 53.2464V54.2407ZM67.5009 58.1186V58.5164H61.3438H55.1867V58.1186V57.7209H61.3438H67.5009V58.1186ZM48.6387 60.5051V61.4994H48.2065C47.884 61.4994 47.6978 61.434 47.4735 61.242C47.2142 61.02 47.1728 60.9184 47.1728 60.5051C47.1728 60.0917 47.2142 59.9901 47.4735 59.7682C47.6978 59.5762 47.884 59.5107 48.2065 59.5107H48.6387V60.5051ZM53.2374 61.6421C53.04 61.8841 53.1511 62.4231 53.4276 62.5646C53.6177 62.6619 55.3747 62.6897 61.3438 62.6897C67.3129 62.6897 69.0699 62.6619 69.26 62.5646C69.4325 62.4763 69.5135 62.3432 69.5354 62.1121C69.5975 61.4593 70.1327 61.4994 61.3438 61.4994C54.5225 61.4994 53.3368 61.5203 53.2374 61.6421ZM54.036 65.5514L54.0628 67.2169H54.4538H54.8447L54.8935 66.3247L54.9424 65.4323L55.2542 66.0264C55.8166 67.098 55.7705 67.0911 56.2655 66.1763L56.7016 65.3704L56.7295 66.3185L56.7575 67.2666H57.1449H57.5323V65.5705V63.8744L57.1248 63.905C56.7232 63.9352 56.7112 63.9472 56.2732 64.7625C55.7664 65.7062 55.8278 65.718 55.2097 64.557C54.8538 63.8883 54.8508 63.8858 54.4308 63.8858H54.0093L54.036 65.5514ZM58.4119 65.5762V67.2666H59.6824H60.9529V66.8689V66.4711H60.0733H59.1937V66.1728V65.8745H60.0244H60.8551V65.5265V65.1785H60.0244C59.2035 65.1785 59.1937 65.1756 59.1937 64.9299C59.1937 64.6832 59.2003 64.6813 60.0733 64.6813H60.9529V64.2836V63.8858H59.6824H58.4119V65.5762ZM61.7347 65.5762V67.2666H62.1221H62.5095L62.5375 66.2971L62.5654 65.3276L63.2859 66.2971C63.9798 67.2308 64.0204 67.2666 64.3854 67.2666H64.7644V65.5762V63.8858H64.377H63.9896L63.9616 64.848L63.9337 65.8101L63.2233 64.848C62.5334 63.9136 62.5017 63.8858 62.1238 63.8858H61.7347V65.5762ZM65.6442 65.0045C65.6444 66.6077 65.9653 67.1418 66.9888 67.2418C67.5755 67.2992 67.9667 67.1159 68.3509 66.6033C68.6092 66.2588 68.6267 66.1711 68.6597 65.0558L68.6946 63.8734L68.2687 63.9044L67.8429 63.9356L67.8154 65.0417C67.7845 66.2839 67.6757 66.5042 67.0934 66.5042C66.5498 66.5042 66.4258 66.219 66.4258 64.9686V63.8858H66.0349H65.644L65.6442 65.0045ZM48.6387 66.7694V67.7638H48.3424C47.9355 67.7638 47.4058 67.5236 47.2783 67.2815C47.2203 67.1711 47.1728 66.8968 47.1728 66.672C47.1728 66.0725 47.4953 65.7751 48.1457 65.7751H48.6387V66.7694ZM53.3516 68.6146C53.0936 68.7984 53.06 69.2648 53.2879 69.4968C53.425 69.6362 54.2902 69.653 61.3438 69.653C70.0379 69.653 69.5532 69.6883 69.5532 69.0549C69.5532 68.4342 69.9071 68.4598 61.3438 68.4598C54.465 68.4598 53.5438 68.4776 53.3516 68.6146ZM48.6387 72.9343V73.9287H48.2065C47.884 73.9287 47.6978 73.8633 47.4735 73.6713C47.2142 73.4493 47.1728 73.3477 47.1728 72.9343C47.1728 72.521 47.2142 72.4194 47.4735 72.1974C47.6978 72.0054 47.884 71.94 48.2065 71.94H48.6387V72.9343Z" fill="url(#paint1_linear_19_147)"></path> <defs> <filter id="filter0_d_19_147" x="0" y="0" width="121" height="121" filterUnits="userSpaceOnUse" color-interpolation-filters="sRGB"> <feFlood flood-opacity="0" result="BackgroundImageFix"></feFlood> <feColorMatrix in="SourceAlpha" type="matrix" values="0 0 0 0 0 0 0 0 0 0 0 0 0 0 0 0 0 0 127 0" result="hardAlpha"></feColorMatrix> <feOffset></feOffset> <feGaussianBlur stdDeviation="12.5"></feGaussianBlur> <feComposite in2="hardAlpha" operator="out"></feComposite> <feColorMatrix type="matrix" values="0 0 0 0 0 0 0 0 0 0 0 0 0 0 0 0 0 0 0.15 0"></feColorMatrix> <feBlend mode="normal" in2="BackgroundImageFix" result="effect1_dropShadow_19_147"></feBlend> <feBlend mode="normal" in="SourceGraphic" in2="effect1_dropShadow_19_147" result="shape"></feBlend> </filter> <linearGradient id="paint0_linear_19_147" x1="29" y1="25" x2="89" y2="96" gradientUnits="userSpaceOnUse"> <stop stop-color="#16171A"></stop> <stop offset="1" stop-color="#2A2C2F"></stop> </linearGradient> <linearGradient id="paint1_linear_19_147" x1="46" y1="73.2187" x2="76.4305" y2="66.7753" gradientUnits="userSpaceOnUse"> <stop offset="0.216958" stop-color="#1A59B8"></stop> <stop offset="0.953732" stop-color="#861DFF"></stop> </linearGradient> </defs> </svg> 