<?xml version="1.0" encoding="UTF-8"?> <svg xmlns="http://www.w3.org/2000/svg" width="121" height="121" viewBox="0 0 121 121" fill="none"> <g filter="url(#filter0_d_19_138)"> <rect x="25" y="25" width="71" height="71" rx="10" fill="url(#paint0_linear_19_138)"></rect> </g> <path fill-rule="evenodd" clip-rule="evenodd" d="M59.5275 45.0337C58.9733 45.1119 58.3172 45.4407 57.8899 45.8541C56.8376 46.872 56.7229 48.4354 57.6126 49.6339L57.8384 49.938L57.4184 50.3991C57.1874 50.6527 55.5483 52.478 53.7759 54.4553L50.5536 58.0505H47.396C45.5503 58.0505 44.0814 58.0793 43.8606 58.1198C43.1131 58.2569 42.4588 58.7397 42.1626 59.3727L42 59.7203V67.524V75.3277L42.1626 75.6752C42.4588 76.3082 43.1131 76.791 43.8606 76.9281C44.3828 77.024 75.6172 77.024 76.1394 76.9281C76.8869 76.791 77.5412 76.3082 77.8374 75.6752L78 75.3277V67.524V59.7203L77.8374 59.3727C77.5412 58.7397 76.8869 58.2569 76.1394 58.1198C75.9186 58.0793 74.4497 58.0505 72.604 58.0505H69.4464L66.2241 54.4553C64.4517 52.478 62.8126 50.6527 62.5816 50.3991L62.1616 49.938L62.3874 49.6339C63.964 47.51 62.1906 44.6575 59.5275 45.0337ZM60.7992 46.6813C60.9481 46.7798 61.1542 46.9782 61.2571 47.1223C61.4189 47.3488 61.4442 47.4534 61.4442 47.8954C61.4442 48.3375 61.4189 48.442 61.2571 48.6686C61.1542 48.8127 60.9481 49.012 60.7992 49.1116C60.565 49.2681 60.4569 49.2926 60 49.2926C59.5431 49.2926 59.435 49.2681 59.2008 49.1116C58.7736 48.826 58.5656 48.4764 58.5331 47.9894C58.4914 47.3635 58.7886 46.8656 59.377 46.5758C59.7388 46.3978 60.4501 46.4504 60.7992 46.6813ZM60 50.788C60.0969 50.788 60.3346 50.7678 60.5284 50.7431L60.8806 50.6984L64.1213 54.3187C65.9037 56.3099 67.3726 57.9642 67.3855 57.9948C67.3985 58.0254 64.075 58.0505 60 58.0505C55.925 58.0505 52.6015 58.0254 52.6145 57.9948C52.6274 57.9642 54.0963 56.3099 55.8787 54.3187L59.1194 50.6984L59.4716 50.7431C59.6654 50.7678 59.9031 50.788 60 50.788ZM76.2268 59.6893C76.3276 59.766 76.4426 59.9423 76.4825 60.0811C76.5825 60.4295 76.5825 74.6184 76.4825 74.9668C76.4426 75.1056 76.3276 75.2819 76.2268 75.3587L76.0436 75.498H60H43.9564L43.7732 75.3587C43.6724 75.2819 43.5574 75.1056 43.5175 74.9668C43.4175 74.6184 43.4175 60.4295 43.5175 60.0811C43.5574 59.9423 43.6724 59.766 43.7732 59.6893L43.9564 59.5499H60H76.0436L76.2268 59.6893ZM45.5093 62.4875C45.3858 62.5221 45.2194 62.6308 45.1395 62.7291C44.9959 62.9057 44.9941 62.9639 44.9941 67.5384V72.169L45.2001 72.3682C45.5815 72.7372 46.2276 72.6162 46.3978 72.1438C46.4419 72.0216 46.4736 71.3748 46.4736 70.5983V69.263L48.1473 70.8811C49.8163 72.4947 50.0119 72.6428 50.3953 72.5831C50.6034 72.5508 50.8963 72.2765 50.952 72.062C51.0483 71.6908 50.9201 71.5285 49.2472 69.9034L47.5923 68.2959L48.1892 68.2258C49.6469 68.0548 50.6987 67.1209 50.9257 65.7958C51.196 64.2174 50.0322 62.7109 48.3621 62.4773C47.7945 62.3979 45.804 62.405 45.5093 62.4875ZM53.0528 62.4576C52.9709 62.474 52.8124 62.58 52.7005 62.693L52.4971 62.8984V67.5271V72.1559L52.7274 72.3787L52.9577 72.6015H55.4912H58.0247L58.247 72.3864C58.5614 72.0822 58.5615 71.6896 58.2471 71.3853L58.0249 71.1702L56.0183 71.1493L54.0117 71.1284V69.7049V68.2814L56.0183 68.2605L58.0249 68.2396L58.2471 68.0245C58.5614 67.7203 58.5614 67.3276 58.2471 67.0234L58.0249 66.8083L56.0183 66.7874L54.0117 66.7665V65.343V63.9195L56.0183 63.8986L58.0249 63.8777L58.2471 63.6626C58.5614 63.3584 58.5614 62.9657 58.2471 62.6615L58.0249 62.4464L55.6132 62.437C54.2868 62.4319 53.1346 62.4411 53.0528 62.4576ZM60.5081 62.49C60.3656 62.5293 60.2233 62.6381 60.1385 62.7728C60.0052 62.9843 60.0005 63.1437 60.0003 67.4627C60.0001 70.4757 60.0247 72.0022 60.0757 72.1438C60.2459 72.6162 60.892 72.7372 61.2735 72.3682L61.4795 72.169L61.483 69.216L61.4865 66.2631L63.0505 69.2708C63.9107 70.9251 64.6575 72.3277 64.7102 72.3877C64.8701 72.5703 65.2695 72.6432 65.5307 72.5375C66.014 72.3422 65.9883 72.6259 65.9883 67.5036V62.879L65.7823 62.6797C65.4008 62.3107 64.7547 62.4317 64.5845 62.9041C64.5355 63.0402 64.5075 64.1132 64.5049 65.9495L64.5011 68.7848L62.9208 65.7371C61.8922 63.7534 61.2848 62.6554 61.181 62.592C60.9418 62.446 60.7647 62.4192 60.5081 62.49ZM68.0534 62.4875C67.35 62.6844 67.3742 63.6493 68.0873 63.8409C68.2309 63.8795 68.8308 63.9112 69.4206 63.9114L70.4928 63.9118L70.5126 68.0338L70.5323 72.1559L70.7546 72.371C71.069 72.6752 71.475 72.6752 71.7894 72.371L72.0117 72.1559L72.0315 68.0338L72.0512 63.9118L73.1234 63.9114C74.3248 63.911 74.6524 63.851 74.8618 63.5936C75.1788 63.2036 74.966 62.6201 74.4567 62.4832C74.1285 62.3951 68.3699 62.3989 68.0534 62.4875ZM48.8103 64.1533C49.6788 64.7438 49.6788 65.9422 48.8103 66.5327C48.5093 66.7373 48.4912 66.7405 47.4893 66.7623L46.4736 66.7843V65.343V63.9017L47.4893 63.9238C48.4912 63.9456 48.5093 63.9487 48.8103 64.1533Z" fill="url(#paint1_linear_19_138)"></path> <defs> <filter id="filter0_d_19_138" x="0" y="0" width="121" height="121" filterUnits="userSpaceOnUse" color-interpolation-filters="sRGB"> <feFlood flood-opacity="0" result="BackgroundImageFix"></feFlood> <feColorMatrix in="SourceAlpha" type="matrix" values="0 0 0 0 0 0 0 0 0 0 0 0 0 0 0 0 0 0 127 0" result="hardAlpha"></feColorMatrix> <feOffset></feOffset> <feGaussianBlur stdDeviation="12.5"></feGaussianBlur> <feComposite in2="hardAlpha" operator="out"></feComposite> <feColorMatrix type="matrix" values="0 0 0 0 0 0 0 0 0 0 0 0 0 0 0 0 0 0 0.15 0"></feColorMatrix> <feBlend mode="normal" in2="BackgroundImageFix" result="effect1_dropShadow_19_138"></feBlend> <feBlend mode="normal" in="SourceGraphic" in2="effect1_dropShadow_19_138" result="shape"></feBlend> </filter> <linearGradient id="paint0_linear_19_138" x1="29" y1="25" x2="89" y2="96" gradientUnits="userSpaceOnUse"> <stop stop-color="#16171A"></stop> <stop offset="1" stop-color="#2A2C2F"></stop> </linearGradient> <linearGradient id="paint1_linear_19_138" x1="42" y1="72" x2="79.1937" y2="60.2921" gradientUnits="userSpaceOnUse"> <stop offset="0.216958" stop-color="#1A59B8"></stop> <stop offset="0.953732" stop-color="#861DFF"></stop> </linearGradient> </defs> </svg> 