<?xml version="1.0" encoding="UTF-8"?> <svg xmlns="http://www.w3.org/2000/svg" width="121" height="121" viewBox="0 0 121 121" fill="none"> <g filter="url(#filter0_d_19_128)"> <rect x="25" y="25" width="71" height="71" rx="10" fill="url(#paint0_linear_19_128)"></rect> </g> <path fill-rule="evenodd" clip-rule="evenodd" d="M68.0588 45.126C67.93 45.1933 67.785 45.32 67.7365 45.4072C67.6773 45.514 67.6484 50.476 67.6484 60.5561V75.5462L67.8895 75.7689C68.2307 76.0841 68.691 76.0762 69.0301 75.7493L69.2812 75.5071V60.5365C69.2812 50.4273 69.2525 45.5142 69.1927 45.4066C69.0906 45.2226 68.6738 44.9952 68.4477 45.0001C68.3626 45.0019 68.1876 45.0586 68.0588 45.126ZM46.7421 48.5089C46.598 48.6376 46.5029 48.8317 46.468 49.0683C46.4385 49.2675 46.4258 54.5463 46.4397 60.7989L46.4648 72.1673L46.6455 72.4012C46.9809 72.8356 47.5239 72.8645 47.9332 72.4698L48.1406 72.2698V60.533V48.7962L47.8894 48.554C47.5613 48.2375 47.0673 48.2181 46.7421 48.5089ZM63.7611 50.6254L63.4805 50.8672L63.4579 60.2447C63.4378 68.6007 63.45 69.652 63.5695 69.8949C63.807 70.3777 64.4497 70.5066 64.8721 70.1562L65.1133 69.9561L65.1361 60.5221C65.1529 53.5293 65.1331 51.028 65.0595 50.8562C64.9482 50.5964 64.588 50.3836 64.2595 50.3836C64.1398 50.3836 63.9155 50.4924 63.7611 50.6254ZM72.3197 51.626C71.8345 51.8149 71.8594 51.3334 71.8594 60.5113V68.9446L72.098 69.2023C72.5409 69.6801 73.3091 69.5053 73.4875 68.8859C73.5469 68.6793 73.5774 65.8454 73.5776 60.4708C73.5781 51.7461 73.5901 51.984 73.1384 51.679C72.9216 51.5325 72.6114 51.5125 72.3197 51.626ZM50.9699 52.6148L50.7188 52.857V60.0789C50.7188 64.8735 50.7485 67.3543 50.8073 67.4601C51.0553 67.9071 51.8476 67.9681 52.176 67.5656C52.3498 67.3525 52.3516 67.2761 52.3516 60.1037V52.857L52.1004 52.6148C51.9144 52.4354 51.7676 52.3725 51.5352 52.3725C51.3027 52.3725 51.1559 52.4354 50.9699 52.6148ZM42.6191 54.0366C42.2079 54.2676 42.2109 54.2214 42.2109 60.3699C42.2109 66.7445 42.1921 66.5238 42.7538 66.7501C43.1251 66.8997 43.459 66.8221 43.7174 66.5259L43.933 66.2788L43.9098 60.313L43.8867 54.3471L43.6456 54.1471C43.3879 53.9334 42.897 53.8806 42.6191 54.0366ZM76.6193 55.6827C76.5195 55.7233 76.3542 55.8591 76.2519 55.9845L76.0659 56.2124L76.0896 60.5981L76.1133 64.9838L76.3544 65.1837C76.6334 65.4151 77.1335 65.4523 77.4144 65.2627C77.7858 65.0118 77.7948 64.8887 77.7699 60.3907L77.7461 56.1055L77.5312 55.8985C77.2899 55.666 76.8918 55.5718 76.6193 55.6827ZM59.4629 56.3571C59.069 56.5784 59.0547 56.7188 59.0547 60.3699C59.0547 64.0455 59.0684 64.1745 59.4796 64.3867C59.7736 64.5385 60.2308 64.4865 60.4893 64.2721L60.7305 64.0722L60.7547 60.5249C60.7801 56.7999 60.766 56.6367 60.3988 56.3886C60.1933 56.2499 59.6844 56.2327 59.4629 56.3571ZM38.4391 57.3778C38.027 57.5981 38.0063 57.7293 38.003 60.1502L38 62.4168L38.3031 62.7091C38.5711 62.9676 38.6426 62.9956 38.9215 62.952C39.0949 62.9248 39.3356 62.8074 39.4563 62.691L39.6758 62.4794V60.1125V57.7457L39.3951 57.5039C39.0894 57.2405 38.7738 57.1989 38.4391 57.3778ZM80.901 57.8589C80.7242 57.9044 80.5546 58.031 80.4478 58.1976C80.288 58.4469 80.2786 58.5909 80.3007 60.4717L80.3242 62.4797L80.5605 62.7074C80.9122 63.0463 81.415 63.029 81.751 62.6664L82 62.3976V60.3797C82 58.4893 81.9892 58.3486 81.8286 58.1517C81.6043 57.8766 81.258 57.7673 80.901 57.8589ZM55.1809 58.3331L54.9297 58.5753V60.4424C54.9297 61.6417 54.9641 62.3823 55.0258 62.5129C55.0785 62.6247 55.2487 62.7821 55.4038 62.8626C55.7628 63.0491 56.1677 62.9534 56.4248 62.6216C56.593 62.4047 56.6073 62.2664 56.6317 60.6141C56.6538 59.1209 56.6361 58.7951 56.5201 58.5596C56.265 58.0411 55.6003 57.9287 55.1809 58.3331Z" fill="url(#paint1_linear_19_128)"></path> <defs> <filter id="filter0_d_19_128" x="0" y="0" width="121" height="121" filterUnits="userSpaceOnUse" color-interpolation-filters="sRGB"> <feFlood flood-opacity="0" result="BackgroundImageFix"></feFlood> <feColorMatrix in="SourceAlpha" type="matrix" values="0 0 0 0 0 0 0 0 0 0 0 0 0 0 0 0 0 0 127 0" result="hardAlpha"></feColorMatrix> <feOffset></feOffset> <feGaussianBlur stdDeviation="12.5"></feGaussianBlur> <feComposite in2="hardAlpha" operator="out"></feComposite> <feColorMatrix type="matrix" values="0 0 0 0 0 0 0 0 0 0 0 0 0 0 0 0 0 0 0.15 0"></feColorMatrix> <feBlend mode="normal" in2="BackgroundImageFix" result="effect1_dropShadow_19_128"></feBlend> <feBlend mode="normal" in="SourceGraphic" in2="effect1_dropShadow_19_128" result="shape"></feBlend> </filter> <linearGradient id="paint0_linear_19_128" x1="29" y1="25" x2="89" y2="96" gradientUnits="userSpaceOnUse"> <stop stop-color="#16171A"></stop> <stop offset="1" stop-color="#2A2C2F"></stop> </linearGradient> <linearGradient id="paint1_linear_19_128" x1="38" y1="71.1562" x2="81.1566" y2="54.0169" gradientUnits="userSpaceOnUse"> <stop offset="0.216958" stop-color="#1A59B8"></stop> <stop offset="0.953732" stop-color="#861DFF"></stop> </linearGradient> </defs> </svg> 